<?xml version="1.0" encoding="utf-8"?>
<svg xmlns="http://www.w3.org/2000/svg" xmlns:xlink="http://www.w3.org/1999/xlink" style="margin: auto; background: rgb(241, 242, 243); display: block; shape-rendering: auto;" width="217px" height="217px" viewBox="0 0 100 100" preserveAspectRatio="xMidYMid">
<g transform="rotate(0 50 50)">
  <rect x="49" y="29.5" rx="1" ry="2.97" width="2" height="11" fill="#624cf5">
    <animate attributeName="opacity" values="1;0" keyTimes="0;1" dur="0.5586592178770949s" begin="-0.4965859714463067s" repeatCount="indefinite"></animate>
  </rect>
</g><g transform="rotate(40 50 50)">
  <rect x="49" y="29.5" rx="1" ry="2.97" width="2" height="11" fill="#624cf5">
    <animate attributeName="opacity" values="1;0" keyTimes="0;1" dur="0.5586592178770949s" begin="-0.43451272501551835s" repeatCount="indefinite"></animate>
  </rect>
</g><g transform="rotate(80 50 50)">
  <rect x="49" y="29.5" rx="1" ry="2.97" width="2" height="11" fill="#624cf5">
    <animate attributeName="opacity" values="1;0" keyTimes="0;1" dur="0.5586592178770949s" begin="-0.37243947858473s" repeatCount="indefinite"></animate>
  </rect>
</g><g transform="rotate(120 50 50)">
  <rect x="49" y="29.5" rx="1" ry="2.97" width="2" height="11" fill="#624cf5">
    <animate attributeName="opacity" values="1;0" keyTimes="0;1" dur="0.5586592178770949s" begin="-0.31036623215394166s" repeatCount="indefinite"></animate>
  </rect>
</g><g transform="rotate(160 50 50)">
  <rect x="49" y="29.5" rx="1" ry="2.97" width="2" height="11" fill="#624cf5">
    <animate attributeName="opacity" values="1;0" keyTimes="0;1" dur="0.5586592178770949s" begin="-0.24829298572315334s" repeatCount="indefinite"></animate>
  </rect>
</g><g transform="rotate(200 50 50)">
  <rect x="49" y="29.5" rx="1" ry="2.97" width="2" height="11" fill="#624cf5">
    <animate attributeName="opacity" values="1;0" keyTimes="0;1" dur="0.5586592178770949s" begin="-0.186219739292365s" repeatCount="indefinite"></animate>
  </rect>
</g><g transform="rotate(240 50 50)">
  <rect x="49" y="29.5" rx="1" ry="2.97" width="2" height="11" fill="#624cf5">
    <animate attributeName="opacity" values="1;0" keyTimes="0;1" dur="0.5586592178770949s" begin="-0.12414649286157667s" repeatCount="indefinite"></animate>
  </rect>
</g><g transform="rotate(280 50 50)">
  <rect x="49" y="29.5" rx="1" ry="2.97" width="2" height="11" fill="#624cf5">
    <animate attributeName="opacity" values="1;0" keyTimes="0;1" dur="0.5586592178770949s" begin="-0.062073246430788334s" repeatCount="indefinite"></animate>
  </rect>
</g><g transform="rotate(320 50 50)">
  <rect x="49" y="29.5" rx="1" ry="2.97" width="2" height="11" fill="#624cf5">
    <animate attributeName="opacity" values="1;0" keyTimes="0;1" dur="0.5586592178770949s" begin="0s" repeatCount="indefinite"></animate>
  </rect>
</g>
<!-- [ldio] generated by https://loading.io/ --></svg>